<svg width="18" height="18" viewBox="0 0 18 18" fill="none" xmlns="http://www.w3.org/2000/svg">
<path d="M4.32001 4.96C4.32001 4.56236 4.64236 4.24 5.04001 4.24H6.48001C6.87765 4.24 7.20001 4.56236 7.20001 4.96V6.4C7.20001 6.79765 6.87765 7.12 6.48001 7.12H5.04001C4.64236 7.12 4.32001 6.79765 4.32001 6.4V4.96Z" fill="#A5EFAC"/>
<path d="M4.32001 13.6C4.32001 13.2024 4.64236 12.88 5.04001 12.88H6.48001C6.87765 12.88 7.20001 13.2024 7.20001 13.6V15.04C7.20001 15.4376 6.87765 15.76 6.48001 15.76H5.04001C4.64236 15.76 4.32001 15.4376 4.32001 15.04V13.6Z" fill="#A5EFAC"/>
<path fill-rule="evenodd" clip-rule="evenodd" d="M9.67633 2.75633C10.0981 2.33456 10.7819 2.33456 11.2037 2.75633L10.44 3.52C11.2037 2.75633 11.2042 2.75688 11.2042 2.75688L11.2049 2.7575L11.2063 2.75892L11.2098 2.76253L11.2199 2.77276C11.2279 2.78092 11.2384 2.79174 11.2512 2.80518C11.2769 2.83205 11.312 2.86943 11.3552 2.91691C11.4414 3.01182 11.5603 3.14749 11.7008 3.32075C11.9811 3.66651 12.3512 4.16638 12.7209 4.79492C13.4556 6.04397 14.22 7.85439 14.22 10C14.22 12.1456 13.4556 13.956 12.7209 15.2051C12.3512 15.8336 11.9811 16.3335 11.7008 16.6793C11.5603 16.8525 11.4414 16.9882 11.3552 17.0831C11.312 17.1306 11.2769 17.168 11.2512 17.1948C11.2384 17.2083 11.2279 17.2191 11.2199 17.2272L11.2098 17.2375L11.2063 17.2411L11.2049 17.2425L11.2042 17.2431C11.2042 17.2431 11.2037 17.2437 10.44 16.48L11.2037 17.2437C10.7819 17.6654 10.0981 17.6654 9.67633 17.2437C9.25524 16.8226 9.25457 16.1403 9.67431 15.7184V15.7184C9.67431 15.7184 9.67499 15.7177 9.6756 15.717L9.67506 15.7176L9.6756 15.717C9.67784 15.7147 9.68251 15.7099 9.68944 15.7027C9.70332 15.6882 9.72623 15.6638 9.75689 15.6301C9.81826 15.5626 9.91034 15.4578 10.023 15.3189C10.2489 15.0403 10.5538 14.6289 10.8591 14.1099C11.4744 13.064 12.06 11.6344 12.06 10C12.06 8.36561 11.4744 6.93603 10.8591 5.89008C10.5538 5.37112 10.2489 4.95974 10.023 4.68113C9.91034 4.5422 9.81826 4.4374 9.75689 4.36989C9.72623 4.33616 9.70332 4.31184 9.68944 4.29732C9.68251 4.29006 9.67784 4.28526 9.6756 4.28297L9.67432 4.28166C9.67432 4.28166 9.675 4.28235 9.6756 4.28297L9.67473 4.28207L9.67432 4.28166V4.28166C9.25458 3.85973 9.25524 3.17742 9.67633 2.75633Z" fill="#A5EFAC"/>
</svg>
